<svg width="13" height="13" viewBox="0 0 13 13" fill="none" xmlns="http://www.w3.org/2000/svg">
<path d="M5.14583 4.33301C5.14583 4.33301 5.29509 6.1912 6.05177 6.9479C6.80848 7.70456 8.66667 7.85384 8.66667 7.85384C8.66667 7.85384 6.80848 8.00312 6.05177 8.75978C5.29509 9.51649 5.14583 11.3747 5.14583 11.3747C5.14583 11.3747 4.99657 9.51649 4.23989 8.75978C3.4832 8.00312 1.625 7.85384 1.625 7.85384C1.625 7.85384 3.4832 7.70456 4.23989 6.9479C4.99657 6.1912 5.14583 4.33301 5.14583 4.33301Z" stroke="#ddd" stroke-linecap="round" stroke-linejoin="round"/>
<path d="M9.20829 1.625C9.20829 1.625 9.30016 2.76851 9.76578 3.23416C10.2314 3.69981 11.375 3.79167 11.375 3.79167C11.375 3.79167 10.2314 3.88352 9.76578 4.34917C9.30016 4.81482 9.20829 5.95833 9.20829 5.95833C9.20829 5.95833 9.11643 4.81482 8.65081 4.34917C8.18514 3.88352 7.04163 3.79167 7.04163 3.79167C7.04163 3.79167 8.18514 3.69981 8.65081 3.23416C9.11643 2.76851 9.20829 1.625 9.20829 1.625Z" stroke="#ddd" stroke-linecap="round" stroke-linejoin="round"/>
</svg>
