<svg width="51" height="51" viewBox="0 0 51 51" fill="none" xmlns="http://www.w3.org/2000/svg">
<rect width="51" height="51" rx="12" fill="#171515"/>
<g clip-path="url(#clip0_503_823)">
<path fill-rule="evenodd" clip-rule="evenodd" d="M25.5 12C32.9588 12 39 17.9355 39 25.2638C38.9989 30.9641 35.2988 36.0266 29.8031 37.8491C29.1281 37.9819 28.875 37.5679 28.875 37.2191C28.875 36.7714 28.8919 35.346 28.8919 33.5719C28.8919 32.3287 28.47 31.5322 27.9806 31.1182C30.9844 30.7864 34.14 29.6591 34.14 24.5685C34.14 23.1094 33.6169 21.9315 32.7563 21.0034C32.8913 20.6715 33.3638 19.3125 32.6213 17.4877C32.6213 17.4877 31.4906 17.1233 28.9088 18.8479C27.8089 18.5482 26.6737 18.3976 25.5338 18.4001C24.3863 18.4001 23.2388 18.5497 22.1588 18.8479C19.5769 17.1401 18.4463 17.4877 18.4463 17.4877C17.7038 19.3125 18.1763 20.6715 18.3113 21.0034C17.4506 21.9315 16.9275 23.1263 16.9275 24.5685C16.9275 29.6423 20.0663 30.7864 23.07 31.1182C22.6819 31.449 22.3275 32.0295 22.2094 32.8924C21.4331 33.2411 19.4925 33.8036 18.2775 31.7977C18.0244 31.3995 17.265 30.4219 16.2019 30.4376C15.0713 30.4545 15.7463 31.0676 16.2188 31.3162C16.7925 31.6313 17.4506 32.8091 17.6025 33.1905C17.8725 33.9364 18.75 35.3618 22.1419 34.7486C22.1419 35.8601 22.1588 36.9041 22.1588 37.2191C22.1588 37.5679 21.9056 37.9661 21.2306 37.8491C15.7159 36.0457 11.9966 30.9754 12 25.2649C12 17.9355 18.0413 12 25.5 12Z" fill="white"/>
</g>
<defs>
<clipPath id="clip0_503_823">
<rect width="27" height="27" fill="white" transform="translate(12 12)"/>
</clipPath>
</defs>
</svg>
