<svg width="51" height="51" viewBox="0 0 51 51" fill="none" xmlns="http://www.w3.org/2000/svg">
<rect width="51" height="51" rx="12" fill="#FF0002"/>
<g clip-path="url(#clip0_503_815)">
<path d="M25.5 51C39.5824 51 51 39.5824 51 25.5C51 11.4176 39.5824 0 25.5 0C11.4176 0 0 11.4176 0 25.5C0 39.5824 11.4176 51 25.5 51Z" fill="#FF0002"/>
<path d="M37.9058 21.7385C37.1333 20.9416 36.0379 20.506 34.697 20.506C33.0374 20.506 31.7592 21.1828 31.0208 22.4493V16.1699H27.1639V33.3856H31.0208V27.3347C31.0208 25.9226 31.3108 25.0184 31.7465 24.4872C32.1651 23.9559 32.759 23.7519 33.3987 23.7519C33.9618 23.7519 34.4112 23.9304 34.7225 24.2587C35.0381 24.5945 35.2166 25.114 35.2166 25.8355V33.3729H39.0756V25.0769C39.0756 23.6648 38.6655 22.5194 37.9058 21.7395V21.7385ZM20.6529 20.506C18.988 20.506 17.7098 21.1828 16.9756 22.4493V16.1699H13.1187V33.3856H16.9756V27.3347C16.9756 25.9226 17.2657 25.0184 17.6981 24.4872C18.121 23.9559 18.7138 23.7519 19.3492 23.7519C19.9177 23.7519 20.3618 23.9304 20.6773 24.2587C20.9929 24.5945 21.1714 25.114 21.1714 25.8355V33.3729H25.0315V25.0769C25.0315 23.6648 24.6203 22.5194 23.8478 21.7268C23.0882 20.9299 21.9927 20.507 20.6518 20.507L20.6529 20.506Z" fill="white"/>
</g>
<defs>
<clipPath id="clip0_503_815">
<rect width="51" height="51" fill="white"/>
</clipPath>
</defs>
</svg>
