<svg width="51" height="51" viewBox="0 0 51 51" fill="none" xmlns="http://www.w3.org/2000/svg">
<rect width="51" height="51" rx="12" fill="#0077FF"/>
<g clip-path="url(#clip0_503_808)">
<mask id="mask0_503_808" style="mask-type:luminance" maskUnits="userSpaceOnUse" x="2" y="2" width="47" height="47">
<path d="M48.3989 2.37207H2.60107V48.6279H48.3989V2.37207Z" fill="white"/>
</mask>
<g mask="url(#mask0_503_808)">
<path d="M2.60107 24.5749C2.60107 14.1084 2.60107 8.87513 5.82041 5.62359C9.03975 2.37207 14.2212 2.37207 24.584 2.37207H26.4159C36.7788 2.37207 41.9602 2.37207 45.1796 5.62359C48.3989 8.87513 48.3989 14.1084 48.3989 24.5749V26.4251C48.3989 36.8916 48.3989 42.1248 45.1796 45.3764C41.9602 48.6279 36.7788 48.6279 26.4159 48.6279H24.584C14.2212 48.6279 9.03975 48.6279 5.82041 45.3764C2.60107 42.1248 2.60107 36.8916 2.60107 26.4251V24.5749Z" fill="#0077FF"/>
<path d="M26.9694 35.6954C16.5313 35.6954 10.5776 28.4679 10.3295 16.4414H15.5581C15.7299 25.2685 19.5844 29.0075 22.6376 29.7785V16.4414H27.5611V24.0543C30.5761 23.7267 33.7434 20.2575 34.812 16.4414H39.7354C38.9148 21.1441 35.48 24.6132 33.0375 26.0394C35.48 27.1958 39.3921 30.2218 40.8805 35.6954H35.461C34.2969 32.0335 31.3966 29.2003 27.5611 28.8148V35.6954H26.9694Z" fill="white"/>
</g>
</g>
<defs>
<clipPath id="clip0_503_808">
<rect width="46.2558" height="46.2558" fill="white" transform="translate(2.37207 2.37207)"/>
</clipPath>
</defs>
</svg>
