<svg width="51" height="51" viewBox="0 0 51 51" fill="none" xmlns="http://www.w3.org/2000/svg">
<rect width="51" height="51" rx="12" fill="#2CB742"/>
<g clip-path="url(#clip0_503_819)">
<path d="M34.9517 15.9252C33.7141 14.6756 32.24 13.685 30.6155 13.0111C28.991 12.3372 27.2486 11.9935 25.4899 12.0001C18.1206 12.0001 12.1148 18.0042 12.108 25.3752C12.108 27.736 12.7256 30.0327 13.8917 32.0662L12 39.0001L19.0943 37.1405C21.0559 38.2107 23.2552 38.7707 25.4899 38.7689H25.4966C32.8676 38.7689 38.8717 32.7648 38.8785 25.387C38.88 23.6288 38.5337 21.8876 37.8594 20.2637C37.1852 18.6398 36.1981 17.1654 34.9517 15.9252ZM25.4899 36.5043C23.4972 36.5027 21.5415 35.9666 19.8266 34.9518L19.4216 34.7088L15.213 35.8124L16.3369 31.7067L16.0736 31.2832C14.9595 29.5118 14.3703 27.461 14.3743 25.3685C14.3743 19.2496 19.3643 14.258 25.4966 14.258C26.9576 14.2553 28.4046 14.5419 29.7542 15.1012C31.1039 15.6605 32.3295 16.4814 33.3604 17.5165C34.3946 18.5478 35.2146 19.7736 35.773 21.1233C36.3314 22.4729 36.6172 23.9197 36.6139 25.3803C36.6071 31.5211 31.6172 36.5043 25.4899 36.5043ZM31.5902 28.1782C31.2577 28.0111 29.6158 27.2028 29.307 27.088C28.9999 26.9783 28.7754 26.921 28.5561 27.2551C28.3316 27.5875 27.6904 28.3452 27.498 28.5629C27.3056 28.7873 27.1065 28.8127 26.7724 28.6473C26.4399 28.4785 25.3616 28.1275 24.0859 26.9851C23.0903 26.0992 22.4237 25.0023 22.2246 24.6698C22.0322 24.3357 22.206 24.1568 22.3731 23.9898C22.5199 23.8413 22.7055 23.5983 22.8726 23.4059C23.0413 23.2135 23.097 23.0718 23.2067 22.849C23.3164 22.6229 23.2641 22.4305 23.1814 22.2635C23.097 22.0964 22.4304 20.4477 22.1486 19.7828C21.8786 19.1264 21.6036 19.2175 21.3977 19.2091C21.2053 19.1973 20.9809 19.1973 20.7564 19.1973C20.587 19.2016 20.4202 19.2408 20.2666 19.3126C20.113 19.3843 19.9759 19.4869 19.8637 19.6141C19.5566 19.9482 18.6977 20.7565 18.6977 22.4052C18.6977 24.0539 19.8958 25.6385 20.0646 25.8629C20.2299 26.0873 22.4169 29.4607 25.7734 30.9119C26.5665 31.2578 27.1909 31.462 27.6786 31.6173C28.4801 31.8738 29.2041 31.835 29.7812 31.7523C30.4224 31.6544 31.7572 30.9423 32.0391 30.161C32.3158 29.378 32.3158 28.7097 32.2314 28.5697C32.1488 28.4279 31.9243 28.3452 31.5902 28.1782Z" fill="white"/>
</g>
<defs>
<clipPath id="clip0_503_819">
<rect width="27" height="27" fill="white" transform="translate(12 12)"/>
</clipPath>
</defs>
</svg>
